# xmcd CD database file
#
# Track frame offsets:
#	150
#	12724
#	24462
#	47285
#	81270
#
# Disc length: 1293 seconds
#
# Revision: 0
# Processed by: cddbd v1.5.2PL0 Copyright (c) Steve Scherf et al.
# Submitted via: CDex 1.70beta2
#
DISCID=32050b05
DTITLE=Cat Power - Jukebox (deluxe edition) [CD2]
DYEAR=2008
DGENRE=Blues
TTITLE0=I Feel
TTITLE1=Naked, If I Want To
TTITLE2=Breathless
TTITLE3=Angelitos Negros
TTITLE4=She's Got You
EXTD=YEAR: 2008
EXTT0=
EXTT1=
EXTT2=
EXTT3=
EXTT4=
PLAYORDER=
